<?xml version="1.0" standalone="no"?>
<!DOCTYPE svg PUBLIC "-//W3C//DTD SVG 20010904//EN"
 "http://www.w3.org/TR/2001/REC-SVG-20010904/DTD/svg10.dtd">
<svg version="1.0" xmlns="http://www.w3.org/2000/svg"
 width="843.000000pt" height="596.000000pt" viewBox="0 0 843.000000 596.000000"
 preserveAspectRatio="xMidYMid meet">
<metadata>
Created by potrace 1.16, written by Peter Selinger 2001-2019
</metadata>
<g transform="translate(0.000000,596.000000) scale(0.100000,-0.100000)"
fill="#000000" stroke="none">
<path d="M3865 4255 c-82 -18 -129 -40 -203 -92 -196 -139 -272 -412 -178
-644 142 -349 611 -443 878 -176 96 96 158 231 158 344 l0 43 -126 0 -126 0 7
38 c31 169 191 274 348 228 155 -45 242 -207 192 -357 -32 -96 -151 -189 -242
-189 -23 0 -23 -1 -23 -130 l0 -130 38 0 c52 0 146 25 212 57 34 16 84 55 131
102 111 111 159 226 159 381 0 351 -328 608 -668 522 -228 -58 -384 -238 -408
-469 l-7 -63 127 0 126 0 0 -27 c-1 -69 -75 -173 -155 -216 -31 -17 -57 -22
-120 -22 -70 0 -87 4 -133 29 -132 73 -185 234 -119 362 45 89 155 164 239
164 16 0 18 11 18 130 l0 130 -32 -1 c-18 0 -60 -7 -93 -14z"/>
<path d="M1122 2645 c-81 -25 -140 -75 -180 -150 -25 -46 -27 -60 -27 -165 0
-110 1 -117 31 -170 34 -62 100 -113 167 -131 69 -18 223 -7 280 21 26 13 47
27 47 31 0 11 -51 119 -56 119 -3 0 -18 -10 -34 -22 -36 -26 -131 -36 -184
-18 -21 6 -48 27 -64 48 -23 31 -27 46 -30 116 -2 69 1 87 20 120 34 58 68 79
135 84 47 3 66 -1 103 -21 l46 -24 32 58 32 58 -25 17 c-67 44 -203 57 -293
29z"/>
<path d="M1664 2644 c-60 -21 -119 -77 -151 -142 -26 -52 -28 -67 -28 -167 0
-96 3 -116 24 -159 51 -104 123 -148 248 -154 179 -9 285 77 313 250 28 176
-44 327 -178 372 -57 20 -173 19 -228 0z m201 -147 c64 -64 70 -224 10 -303
-31 -41 -84 -58 -136 -44 -64 18 -99 81 -99 182 0 88 15 131 56 167 29 26 43
31 85 31 44 0 55 -4 84 -33z"/>
<path d="M2340 2649 c-13 -6 -33 -18 -43 -27 -18 -16 -20 -16 -34 6 -13 18
-25 22 -69 22 l-54 0 0 -310 0 -310 75 0 75 0 0 218 c0 231 0 233 50 266 42
28 106 17 137 -23 9 -11 12 -79 13 -238 l0 -223 80 0 80 0 2 227 3 227 34 23
c64 43 132 23 151 -45 5 -20 10 -126 10 -234 l0 -198 75 0 75 0 0 224 0 224
31 26 c41 35 97 35 136 2 l28 -24 3 -226 3 -226 75 0 74 0 0 240 c0 264 -3
283 -59 335 -40 38 -82 53 -152 54 -59 1 -140 -22 -159 -44 -9 -11 -20 -8 -58
13 -41 24 -58 27 -137 27 -78 0 -96 -3 -136 -26 -45 -25 -46 -25 -68 -8 -13
10 -39 23 -59 29 -46 12 -149 12 -182 -1z"/>
<path d="M3604 2644 c-58 -21 -120 -77 -151 -138 -22 -41 -28 -69 -31 -142
-10 -217 84 -334 275 -343 107 -4 171 16 228 74 66 66 88 135 83 265 -3 90 -8
113 -31 156 -50 98 -138 145 -266 143 -36 0 -85 -7 -107 -15z m195 -139 c38
-32 54 -82 54 -165 -1 -123 -52 -193 -140 -193 -89 0 -133 62 -133 187 0 133
45 195 142 196 35 0 54 -6 77 -25z"/>
<path d="M4280 2644 c-19 -8 -42 -21 -51 -30 -14 -13 -17 -11 -27 11 -10 22
-18 25 -67 25 l-55 0 0 -310 0 -310 75 0 75 0 2 227 3 227 40 23 c47 27 111
30 144 7 44 -31 51 -68 51 -284 l0 -200 75 0 75 0 0 223 c0 132 -5 238 -11
262 -15 52 -82 119 -134 134 -56 15 -154 13 -195 -5z"/>
<path d="M4818 2650 c-90 -27 -133 -88 -126 -176 7 -78 41 -116 159 -176 123
-63 144 -93 98 -139 -17 -17 -30 -20 -69 -17 -26 3 -66 15 -89 26 -23 12 -43
22 -46 22 -4 0 -55 -108 -55 -117 0 -2 25 -16 56 -30 50 -23 65 -25 153 -21
83 3 103 7 143 31 81 47 109 144 69 234 -22 48 -41 62 -165 123 -78 38 -91 49
-94 72 -5 40 34 62 95 53 27 -3 58 -13 71 -21 12 -8 27 -12 32 -9 13 8 42 103
35 115 -19 31 -198 51 -267 30z"/>
<path d="M5387 2646 c-133 -48 -207 -161 -207 -316 0 -131 47 -224 141 -275
45 -24 68 -30 143 -33 98 -5 174 8 224 38 l32 20 -29 59 -30 59 -47 -24 c-58
-29 -143 -32 -194 -6 -37 18 -80 74 -80 103 0 18 12 19 219 19 l218 0 7 46
c19 138 -61 272 -185 308 -64 19 -161 20 -212 2z m180 -136 c30 -18 63 -65 63
-90 0 -6 -49 -10 -140 -10 -91 0 -140 4 -140 10 0 25 33 72 63 90 19 12 50 20
77 20 27 0 58 -8 77 -20z"/>
<path d="M6057 2646 c-21 -8 -46 -21 -56 -30 -16 -15 -19 -14 -29 9 -10 22
-18 25 -67 25 l-55 0 0 -310 0 -310 75 0 75 0 0 218 c0 119 4 222 8 228 16 26
79 54 119 54 33 0 50 -7 75 -29 l33 -29 3 -221 3 -221 80 0 81 0 -4 228 c-3
189 -7 234 -21 267 -40 90 -112 135 -217 134 -36 0 -82 -6 -103 -13z"/>
<path d="M6588 2650 c-90 -27 -133 -88 -126 -176 7 -78 41 -116 159 -176 99
-51 119 -68 119 -105 0 -56 -95 -69 -180 -24 -22 11 -42 21 -45 21 -4 0 -55
-108 -55 -117 0 -2 25 -16 56 -30 50 -23 65 -25 153 -21 83 3 103 7 143 31 81
47 109 144 69 234 -22 48 -41 62 -165 123 -78 38 -91 49 -94 72 -5 40 34 62
95 53 27 -3 58 -13 70 -21 12 -8 26 -14 31 -14 11 0 45 108 37 120 -19 31
-198 51 -267 30z"/>
<path d="M7157 2646 c-142 -51 -214 -171 -205 -340 7 -128 54 -208 152 -258
81 -42 276 -35 354 12 l32 20 -30 59 -30 60 -42 -24 c-32 -19 -58 -25 -103
-25 -92 0 -153 40 -171 113 l-6 27 220 0 220 0 6 53 c7 53 -5 131 -25 170 -27
49 -93 107 -145 127 -64 23 -169 26 -227 6z m173 -129 c26 -13 70 -71 70 -93
0 -11 -29 -14 -140 -14 -91 0 -140 4 -140 10 0 25 33 72 63 90 37 23 109 26
147 7z"/>
</g>
</svg>
