<svg width="318" height="209" viewBox="0 0 318 209" fill="none" xmlns="http://www.w3.org/2000/svg">
<path d="M88.4 1.5C46.4 8 13.9 37.7 2.90002 79.6C0.800024 87.3 0.500024 90.7 0.600024 105C0.700024 122.8 1.90002 129.3 7.60002 143.7C14.4 160.9 29 179.2 44.5 189.9C96.7 226 169.3 207.7 197.1 151.5C203.4 138.6 206.9 126.1 207.7 113.7L208.3 104H183.7H159.2L159.7 99.7C162.9 71.3 186.3 50 214.2 50C237.5 50 258.4 65.2 266.2 87.8C268 93 268.5 96.7 268.5 104.5C268.5 120.8 262.7 133.7 250.5 144.8C241.5 153 227.6 159 217.6 159H214V184C214 200.6 214.3 209 215 209C215.6 209 220.4 208.5 225.7 207.9C268.3 203.2 301.9 174.7 314.7 132.5C317.2 124.1 317.4 122.2 317.4 105C317.5 83.2 316 76.1 308.1 59.5C283.3 7.4 221.6 -14.3 169.1 10.5C157.4 16.1 149.5 21.7 140.1 31.1C122.8 48.6 112.2 71.7 110.4 96.2L109.7 105H134.5H159.3L158.6 110.2C155.1 137.8 131.5 159 104.3 159C89.9 159 76.3 153.3 66.1 143.1C47.7 124.6 44.4 98.5 57.7 76.1C66.5 61.4 85.3 50 100.9 50H105V25V-3.11434e-06L100.8 0.0999969C98.4 0.199997 92.9 0.799997 88.4 1.5Z" fill="black"/>
</svg>
