<svg width="665" height="225" viewBox="0 0 665 225" fill="none" xmlns="http://www.w3.org/2000/svg">
<path d="M295.5 1.50004C287.3 3.30004 282.6 5.50004 275.2 10.7C255.6 24.6 248 51.9 257.4 75.1C271.6 110 318.5 119.4 345.2 92.7C354.8 83.1 361 69.6 361 58.3V54H348.4H335.8L336.5 50.2C339.6 33.3 355.6 22.8 371.3 27.4C386.8 31.9 395.5 48.1 390.5 63.1C387.3 72.7 375.4 82 366.3 82C364 82 364 82.1 364 95V108H367.8C373 108 382.4 105.5 389 102.3C392.4 100.7 397.4 96.8 402.1 92.1C413.2 81 418 69.5 418 54C418 18.9 385.2 -6.79997 351.2 1.80004C328.4 7.60004 312.8 25.6 310.4 48.7L309.7 55H322.4H335V57.7C334.9 64.6 327.5 75 319.5 79.3C316.4 81 313.8 81.5 307.5 81.5C300.5 81.5 298.8 81.1 294.2 78.6C281 71.3 275.7 55.2 282.3 42.4C286.8 33.5 297.8 26 306.2 26C307.8 26 308 24.9 308 13V3.50103e-05L304.8 0.100035C303 0.100035 298.8 0.800035 295.5 1.50004Z" fill="black"/>
<path d="M21.2 162.5C13.1 165 7.2 170 3.2 177.5C0.7 182.1 0.5 183.5 0.5 194C0.5 205 0.6 205.7 3.6 211C7 217.2 13.6 222.3 20.3 224.1C27.2 225.9 42.6 224.8 48.3 222C50.9 220.7 53 219.3 53 218.9C53 217.8 47.9 207 47.4 207C47.1 207 45.6 208 44 209.2C40.4 211.8 30.9 212.8 25.6 211C23.5 210.4 20.8 208.3 19.2 206.2C16.9 203.1 16.5 201.6 16.2 194.6C16 187.7 16.3 185.9 18.2 182.6C21.6 176.8 25 174.7 31.7 174.2C36.4 173.9 38.3 174.3 42 176.3L46.6 178.7L49.8 172.9L53 167.1L50.5 165.4C43.8 161 30.2 159.7 21.2 162.5Z" fill="black"/>
<path d="M75.4 162.6C69.4 164.7 63.5 170.3 60.3 176.8C57.7 182 57.5 183.5 57.5 193.5C57.5 203.1 57.8 205.1 59.9 209.4C65 219.8 72.2 224.2 84.7 224.8C102.6 225.7 113.2 217.1 116 199.8C118.8 182.2 111.6 167.1 98.2 162.6C92.5 160.6 80.9 160.7 75.4 162.6ZM95.5 177.3C101.9 183.7 102.5 199.7 96.5 207.6C93.4 211.7 88.1 213.4 82.9 212C76.5 210.2 73 203.9 73 193.8C73 185 74.5 180.7 78.6 177.1C81.5 174.5 82.9 174 87.1 174C91.5 174 92.6 174.4 95.5 177.3Z" fill="black"/>
<path d="M143 162.1C141.7 162.7 139.7 163.9 138.7 164.8C136.9 166.4 136.7 166.4 135.3 164.2C134 162.4 132.8 162 128.4 162H123V193V224H130.5H138V202.2C138 179.1 138 178.9 143 175.6C147.2 172.8 153.6 173.9 156.7 177.9C157.6 179 157.9 185.8 158 201.7V224H166H174L174.2 201.3L174.5 178.6L177.9 176.3C184.3 172 191.1 174 193 180.8C193.5 182.8 194 193.4 194 204.2V224H201.5H209V201.6V179.2L212.1 176.6C216.2 173.1 221.8 173.1 225.7 176.4L228.5 178.8L228.8 201.4L229.1 224H236.6H244V200C244 173.6 243.7 171.7 238.1 166.5C234.1 162.7 229.9 161.2 222.9 161.1C217 161 208.9 163.3 207 165.5C206.1 166.6 205 166.3 201.2 164.2C197.1 161.8 195.4 161.5 187.5 161.5C179.7 161.5 177.9 161.8 173.9 164.1C169.4 166.6 169.3 166.6 167.1 164.9C165.8 163.9 163.2 162.6 161.2 162C156.6 160.8 146.3 160.8 143 162.1Z" fill="black"/>
<path d="M269.4 162.6C263.6 164.7 257.4 170.3 254.3 176.4C252.1 180.5 251.5 183.3 251.2 190.6C250.2 212.3 259.6 224 278.7 224.9C289.4 225.3 295.8 223.3 301.5 217.5C308.1 210.9 310.3 204 309.8 191C309.5 182 309 179.7 306.7 175.4C301.7 165.6 292.9 160.9 280.1 161.1C276.5 161.1 271.6 161.8 269.4 162.6ZM288.9 176.5C292.7 179.7 294.3 184.7 294.3 193C294.2 205.3 289.1 212.3 280.3 212.3C271.4 212.3 267 206.1 267 193.6C267 180.3 271.5 174.1 281.2 174C284.7 174 286.6 174.6 288.9 176.5Z" fill="black"/>
<path d="M337 162.6C335.1 163.4 332.8 164.7 331.9 165.6C330.5 166.9 330.2 166.7 329.2 164.5C328.2 162.3 327.4 162 322.5 162H317V193V224H324.5H332L332.2 201.3L332.5 178.6L336.5 176.3C341.2 173.6 347.6 173.3 350.9 175.6C355.3 178.7 356 182.4 356 204V224H363.5H371V201.7C371 188.5 370.5 177.9 369.9 175.5C368.4 170.3 361.7 163.6 356.5 162.1C350.9 160.6 341.1 160.8 337 162.6Z" fill="black"/>
<path d="M390.8 162C381.8 164.7 377.5 170.8 378.2 179.6C378.9 187.4 382.3 191.2 394.1 197.2C406.4 203.5 408.5 206.5 403.9 211.1C402.2 212.8 400.9 213.1 397 212.8C394.4 212.5 390.4 211.3 388.1 210.2C385.8 209 383.8 208 383.5 208C383.1 208 378 218.8 378 219.7C378 219.9 380.5 221.3 383.6 222.7C388.6 225 390.1 225.2 398.9 224.8C407.2 224.5 409.2 224.1 413.2 221.7C421.3 217 424.1 207.3 420.1 198.3C417.9 193.5 416 192.1 403.6 186C395.8 182.2 394.5 181.1 394.2 178.8C393.7 174.8 397.6 172.6 403.7 173.5C406.4 173.8 409.5 174.8 410.8 175.6C412 176.4 413.5 176.8 414 176.5C415.3 175.7 418.2 166.2 417.5 165C415.6 161.9 397.7 159.9 390.8 162Z" fill="black"/>
<path d="M447.7 162.4C434.4 167.2 427 178.5 427 194C427 207.1 431.7 216.4 441.1 221.5C445.6 223.9 447.9 224.5 455.4 224.8C465.2 225.3 472.8 224 477.8 221L481 219L478.1 213.1L475.1 207.2L470.4 209.6C464.6 212.5 456.1 212.8 451 210.2C447.3 208.4 443 202.8 443 199.9C443 198.1 444.2 198 464.9 198H486.7L487.4 193.4C489.3 179.6 481.3 166.2 468.9 162.6C462.5 160.7 452.8 160.6 447.7 162.4ZM465.7 176C468.7 177.8 472 182.5 472 185C472 185.6 467.1 186 458 186C448.9 186 444 185.6 444 185C444 182.5 447.3 177.8 450.3 176C452.2 174.8 455.3 174 458 174C460.7 174 463.8 174.8 465.7 176Z" fill="black"/>
<path d="M514.7 162.4C512.6 163.2 510.1 164.5 509.1 165.4C507.5 166.9 507.2 166.8 506.2 164.5C505.2 162.3 504.4 162 499.5 162H494V193V224H501.5H509V202.2C509 190.3 509.4 180 509.8 179.4C511.4 176.8 517.7 174 521.7 174C525 174 526.7 174.7 529.2 176.9L532.5 179.8L532.8 201.9L533.1 224H541.1H549.2L548.8 201.2C548.5 182.3 548.1 177.8 546.7 174.5C542.7 165.5 535.5 161 525 161.1C521.4 161.1 516.8 161.7 514.7 162.4Z" fill="black"/>
<path d="M567.8 162C558.8 164.7 554.5 170.8 555.2 179.6C555.9 187.4 559.3 191.2 571.1 197.2C581 202.3 583 204 583 207.7C583 213.3 573.5 214.6 565 210.1C562.8 209 560.8 208 560.5 208C560.1 208 555 218.8 555 219.7C555 219.9 557.5 221.3 560.6 222.7C565.6 225 567.1 225.2 575.9 224.8C584.2 224.5 586.2 224.1 590.2 221.7C598.3 217 601.1 207.3 597.1 198.3C594.9 193.5 593 192.1 580.6 186C572.8 182.2 571.5 181.1 571.2 178.8C570.7 174.8 574.6 172.6 580.7 173.5C583.4 173.8 586.5 174.8 587.7 175.6C588.9 176.4 590.3 177 590.8 177C591.9 177 595.3 166.2 594.5 165C592.6 161.9 574.7 159.9 567.8 162Z" fill="black"/>
<path d="M624.7 162.4C610.5 167.5 603.3 179.5 604.2 196.4C604.9 209.2 609.6 217.2 619.4 222.2C627.5 226.4 647 225.7 654.8 221L658 219L655 213.1L652 207.1L647.8 209.5C644.6 211.4 642 212 637.5 212C628.3 212 622.2 208 620.4 200.7L619.8 198H641.8H663.8L664.4 192.7C665.1 187.4 663.9 179.6 661.9 175.7C659.2 170.8 652.6 165 647.4 163C641 160.7 630.5 160.4 624.7 162.4ZM642 175.3C644.6 176.6 649 182.4 649 184.6C649 185.7 646.1 186 635 186C625.9 186 621 185.6 621 185C621 182.5 624.3 177.8 627.3 176C631 173.7 638.2 173.4 642 175.3Z" fill="black"/>
</svg>
