<svg width="316" height="210" viewBox="0 0 316 210" fill="none" xmlns="http://www.w3.org/2000/svg">
<path d="M94.5339 1.59995C65.3339 5.79995 45.8339 15.2999 28.3339 33.7999C-14.1661 78.8999 -8.06609 151.5 41.3339 188.8C81.3339 218.9 138.434 216 174.834 182C192.734 165.3 203.434 145 207.034 121.3C207.834 115.9 208.534 110 208.534 108.2V105H183.534H158.534V109.2C158.434 123.3 149.034 140.3 136.034 149.5C123.734 158.3 107.234 162 93.2339 159C73.5339 154.9 56.2339 138.3 51.1339 118.4C43.0339 87.1999 66.1339 54.3999 98.3339 51.2999L104.534 50.6999V25.8999V0.999948L100.834 1.09995C98.7339 1.19995 95.9339 1.39995 94.5339 1.59995Z" fill="#F6F6F6"/>
<path d="M221 207.975C250.2 203.775 269.7 194.275 287.2 175.775C329.7 130.675 323.6 58.075 274.2 20.775C234.2 -9.32499 177.1 -6.42499 140.7 27.575C122.8 44.275 112.1 64.575 108.5 88.275C107.7 93.675 107 99.575 107 101.375V104.575H132H157V100.375C157.1 86.275 166.5 69.275 179.5 60.075C191.8 51.275 208.3 47.575 222.3 50.575C242 54.675 259.3 71.275 264.4 91.175C272.5 122.375 249.4 155.175 217.2 158.275L211 158.875V183.675V208.575L214.7 208.475C216.8 208.375 219.6 208.175 221 207.975Z" fill="#75BFC0"/>
</svg>
